<svg width="170" height="36" viewBox="0 0 170 36" fill="none" xmlns="http://www.w3.org/2000/svg">
<path d="M34.3055 28.2847C33.1627 28.2847 32.1866 28.0784 31.3771 27.6657C30.5676 27.253 29.9248 26.6499 29.4486 25.8562H28.4487V27.999H25.9726V25.6182H27.163V8H29.401V16.1424H29.4962C29.9407 15.2536 30.5914 14.579 31.4485 14.1187C32.3215 13.6584 33.3373 13.4283 34.496 13.4283C35.8451 13.4283 37.0038 13.7299 37.972 14.333C38.9561 14.9203 39.71 15.7695 40.2338 16.8805C40.7576 17.9916 41.0195 19.3169 41.0195 20.8565C41.0195 22.3961 40.7496 23.7214 40.21 24.8325C39.6862 25.9435 38.9243 26.8006 37.9244 27.4038C36.9244 27.9911 35.7181 28.2847 34.3055 28.2847ZM33.996 26.38C35.5039 26.38 36.6784 25.8959 37.5196 24.9277C38.3609 23.9595 38.7815 22.6024 38.7815 20.8565C38.7815 19.1106 38.3609 17.7535 37.5196 16.7853C36.6784 15.8171 35.5039 15.333 33.996 15.333C32.6151 15.333 31.5041 15.7298 30.6628 16.5234C29.8216 17.317 29.401 18.3725 29.401 19.6899V22.0231C29.401 23.3405 29.8216 24.396 30.6628 25.1896C31.5041 25.9832 32.6151 26.38 33.996 26.38Z" fill="#3056A9"/>
<path d="M44.4825 27.999V16.0948H43.292V13.714H45.7681V16.3329H46.7681C47.1807 15.4917 47.7998 14.833 48.6251 14.3568C49.4663 13.8648 50.4584 13.6188 51.6012 13.6188H52.7678V15.5234H51.4821C49.9901 15.5234 48.8235 15.9679 47.9823 16.8567C47.1411 17.7455 46.7204 18.9518 46.7204 20.4756V27.999H44.4825Z" fill="#3056A9"/>
<path d="M60.4906 28.2847C59.0303 28.2847 57.7606 27.9831 56.6813 27.38C55.6019 26.761 54.7607 25.8959 54.1576 24.7849C53.5703 23.6738 53.2767 22.3644 53.2767 20.8565C53.2767 19.3486 53.5703 18.0392 54.1576 16.9281C54.7448 15.8171 55.5781 14.96 56.6574 14.3568C57.7526 13.7378 59.0303 13.4283 60.4906 13.4283C61.9826 13.4283 63.2603 13.7299 64.3237 14.333C65.403 14.9362 66.2363 15.7933 66.8236 16.9043C67.4109 18.0154 67.7045 19.3328 67.7045 20.8565C67.7045 22.3644 67.4109 23.6818 66.8236 24.8087C66.2363 25.9197 65.403 26.7768 64.3237 27.38C63.2444 27.9831 61.9667 28.2847 60.4906 28.2847ZM60.4906 26.3324C62.0619 26.3324 63.2841 25.8562 64.1571 24.9039C65.03 23.9357 65.4665 22.5866 65.4665 20.8565C65.4665 19.1106 65.03 17.7614 64.1571 16.8091C63.2841 15.8567 62.0619 15.3806 60.4906 15.3806C58.9351 15.3806 57.7129 15.8647 56.8241 16.8329C55.9511 17.7852 55.5146 19.1264 55.5146 20.8565C55.5146 22.5866 55.9511 23.9357 56.8241 24.9039C57.7129 25.8562 58.9351 26.3324 60.4906 26.3324Z" fill="#3056A9"/>
<path d="M76.8268 28.2847C75.3666 28.2847 74.0968 27.9831 73.0175 27.38C71.9382 26.761 71.097 25.8959 70.4938 24.7849C69.9065 23.6738 69.6129 22.3644 69.6129 20.8565C69.6129 19.3486 69.9065 18.0392 70.4938 16.9281C71.0811 15.8171 71.9144 14.96 72.9937 14.3568C74.0889 13.7378 75.3666 13.4283 76.8268 13.4283C78.3188 13.4283 79.5965 13.7299 80.66 14.333C81.7393 14.9362 82.5726 15.7933 83.1598 16.9043C83.7471 18.0154 84.0407 19.3328 84.0407 20.8565C84.0407 22.3644 83.7471 23.6818 83.1598 24.8087C82.5726 25.9197 81.7393 26.7768 80.66 27.38C79.5806 27.9831 78.3029 28.2847 76.8268 28.2847ZM76.8268 26.3324C78.3982 26.3324 79.6203 25.8562 80.4933 24.9039C81.3663 23.9357 81.8028 22.5866 81.8028 20.8565C81.8028 19.1106 81.3663 17.7614 80.4933 16.8091C79.6203 15.8567 78.3982 15.3806 76.8268 15.3806C75.2713 15.3806 74.0492 15.8647 73.1603 16.8329C72.2874 17.7852 71.8509 19.1264 71.8509 20.8565C71.8509 22.5866 72.2874 23.9357 73.1603 24.9039C74.0492 25.8562 75.2713 26.3324 76.8268 26.3324Z" fill="#3056A9"/>
<path d="M87.2348 27.999V16.0948H86.0444V13.714H88.5204V15.8567H89.7109C90.0918 15.079 90.6711 14.4838 91.4489 14.0711C92.2266 13.6584 93.1551 13.4521 94.2344 13.4521C95.3455 13.4521 96.2899 13.6823 97.0676 14.1425C97.8612 14.6028 98.4882 15.3171 98.9485 16.2853H99.0199C99.9881 14.3965 101.639 13.4521 103.972 13.4521C105.686 13.4521 107.02 13.9521 107.972 14.952C108.94 15.9361 109.424 17.3091 109.424 19.0709V27.999H107.186V19.3566C107.186 16.7218 105.893 15.4044 103.305 15.4044C100.734 15.4044 99.4485 16.7218 99.4485 19.3566V27.999H97.2105V19.3566C97.2105 16.7218 95.9169 15.4044 93.3297 15.4044C92.0758 15.4044 91.1155 15.7456 90.4489 16.4281C89.7982 17.0948 89.4728 18.0709 89.4728 19.3566V27.999H87.2348Z" fill="#3056A9"/>
<path d="M118.169 28.2847C116.233 28.2847 114.701 27.8879 113.574 27.0943C112.447 26.2848 111.828 25.1579 111.717 23.7135H113.955C114.066 24.6341 114.471 25.3166 115.169 25.761C115.868 26.2054 116.892 26.4276 118.241 26.4276C120.669 26.4276 121.883 25.6499 121.883 24.0944C121.883 23.4595 121.693 22.9754 121.312 22.6421C120.947 22.2929 120.32 22.039 119.431 21.8803L116.312 21.3089C113.725 20.8327 112.431 19.5947 112.431 17.5948C112.431 16.3091 112.916 15.2933 113.884 14.5473C114.852 13.8013 116.177 13.4283 117.86 13.4283C119.59 13.4283 120.971 13.8092 122.002 14.5711C123.05 15.333 123.653 16.3964 123.812 17.7614H121.621C121.447 16.9202 121.05 16.3012 120.431 15.9044C119.812 15.4917 118.947 15.2853 117.836 15.2853C116.772 15.2853 115.955 15.4758 115.384 15.8567C114.812 16.2218 114.527 16.7615 114.527 17.4757C114.527 18.0154 114.709 18.4439 115.074 18.7614C115.455 19.0629 116.066 19.2931 116.907 19.4518L120.002 20.0232C121.368 20.2772 122.367 20.7216 123.002 21.3565C123.637 21.9914 123.955 22.8485 123.955 23.9278C123.955 25.3087 123.455 26.38 122.455 27.1419C121.455 27.9038 120.026 28.2847 118.169 28.2847Z" fill="#3056A9"/>
<path d="M129.56 27.999C128.894 27.999 128.37 27.8323 127.989 27.499C127.624 27.1498 127.441 26.634 127.441 25.9515V15.4282H124.704V13.714H127.465V9.4285H129.656V13.714H133.56V15.4282H129.679V26.2372H133.941V27.999H129.56Z" fill="#3056A9"/>
<path d="M136.157 27.999V13.714H138.395V27.999H136.157ZM137.276 11.5712C136.879 11.5712 136.538 11.4363 136.252 11.1665C135.983 10.8808 135.848 10.5396 135.848 10.1427C135.848 9.74594 135.983 9.41263 136.252 9.1428C136.538 8.8571 136.879 8.71425 137.276 8.71425C137.673 8.71425 138.006 8.8571 138.276 9.1428C138.562 9.41263 138.705 9.74594 138.705 10.1427C138.705 10.5396 138.562 10.8808 138.276 11.1665C138.006 11.4363 137.673 11.5712 137.276 11.5712Z" fill="#3056A9"/>
<path d="M148.373 28.2847C146.928 28.2847 145.674 27.9831 144.611 27.38C143.548 26.761 142.722 25.8959 142.135 24.7849C141.564 23.6738 141.278 22.3644 141.278 20.8565C141.278 19.3486 141.564 18.0392 142.135 16.9281C142.706 15.8171 143.524 14.96 144.587 14.3568C145.651 13.7378 146.912 13.4283 148.373 13.4283C150.071 13.4283 151.492 13.8489 152.634 14.6901C153.777 15.5155 154.547 16.7297 154.944 18.3328H152.658C152.373 17.317 151.873 16.571 151.158 16.0948C150.444 15.6187 149.516 15.3806 148.373 15.3806C146.833 15.3806 145.635 15.8647 144.778 16.8329C143.936 17.7852 143.516 19.1264 143.516 20.8565C143.516 22.5707 143.936 23.9119 144.778 24.8801C145.635 25.8483 146.833 26.3324 148.373 26.3324C150.754 26.3324 152.214 25.269 152.753 23.1421H155.039C154.658 24.8246 153.888 26.1023 152.73 26.9752C151.571 27.8482 150.119 28.2847 148.373 28.2847Z" fill="#3056A9"/>
<path d="M157.001 27.999V8H159.239V20.5708H159.334L166.643 13.714H169.429L162.715 19.7613L170 27.999H167.238L161.215 21.1422L159.239 22.7612V27.999H157.001Z" fill="#3056A9"/>
<path d="M16 28H13L12 22L11 28H0L1 20H15L16 28Z" fill="#3056A9"/>
<path d="M9 16H13C14.1046 16 15 16.8954 15 18H1C1 16.8954 1.89543 16 3 16H7V8H9V16Z" fill="#3056A9"/>
</svg>
